<svg width="271" height="911" viewBox="0 0 271 911" fill="none" xmlns="http://www.w3.org/2000/svg">
<path fill-rule="evenodd" clip-rule="evenodd" d="M-55.1386 366.617C-62.3761 363.629 -69.0456 358.973 -74.7641 352.914C-66.3681 352.664 -58.0069 351.538 -49.777 349.548C-31.5545 344.389 -14.7385 333.799 -0.915573 318.776C26.0948 288.606 38.4366 255.43 49.6656 216.485C58.827 181.69 65.959 146.186 71.0108 110.226C73.5399 98.206 75.1584 86.1859 77.6874 74.1657C78.4967 71.1606 79.7107 67.7949 80.4189 64.9101C81.127 62.0252 81.3293 63.3475 79.3061 64.9101C77.2828 66.4727 80.9247 63.5878 85.7804 62.0252C135.451 87.8686 146.478 173.693 109.149 256.993C71.82 340.292 -2.12949 391.498 -54.9362 367.698L-55.1386 366.617ZM-78.1025 350.029C-110.474 313.968 -113.408 240.765 -81.7443 169.726C-52.3061 103.495 -0.814392 58.6596 45.4168 53.2505C44.1017 57.2171 43.3935 61.0637 42.8877 62.5061C40.8645 76.2091 39.6505 89.912 38.4366 103.495C36.6937 139.135 33.1466 174.619 27.8145 209.753C20.7331 246.775 12.6401 279.47 -9.21095 310.723C-20.6327 325.778 -35.1783 337.01 -51.3956 343.297C-60.0833 346.537 -69.0357 348.672 -78.1025 349.668V350.029Z" fill="#AF7F58" fill-opacity="0.15"/>
<path fill-rule="evenodd" clip-rule="evenodd" d="M30.3614 905.317C33.0937 907.386 36.3465 908.867 39.9331 909.677C38.1977 906.45 36.8084 903.04 35.7812 899.487C33.7975 891.452 34.2173 882.738 37.0012 874.166C42.7563 857.236 52.8717 845.177 65.4573 832.253C76.8915 821.035 89.0421 810.425 101.823 800.5C105.912 796.865 110.199 793.574 114.288 789.939C115.271 788.963 116.306 787.754 117.265 786.843C118.224 785.933 117.67 786.151 117.508 787.264C117.346 788.377 117.665 786.358 117.209 784.175C96.3958 771.17 60.8567 786.136 36.8416 818.81C12.8265 851.483 9.19089 890.837 29.8996 905.482L30.3614 905.317ZM41.7753 910.295C62.7592 914.487 91.6601 899.276 112.178 871.477C131.325 845.59 137.4 816.141 129.403 797.468C128.158 798.849 126.828 799.974 126.381 800.487C121.532 804.306 116.507 807.82 111.528 811.306C98.1488 819.91 85.2237 829.161 72.8231 839.008C60.0751 849.936 49.2185 860.282 41.9202 875.505C38.5997 883.177 37.4368 891.176 38.5475 898.705C39.1922 902.709 40.3208 906.567 41.9145 910.215L41.7753 910.295Z" fill="#AF7F58" fill-opacity="0.15"/>
<g clip-path="url(#clip0_0_1)">
<path fill-rule="evenodd" clip-rule="evenodd" d="M196.91 142.539C193.839 141.964 190.864 140.668 188.157 138.726C191.439 137.9 194.641 136.724 197.726 135.212C204.499 131.561 210.308 125.847 214.605 118.611C222.939 104.142 225.278 89.7341 226.744 73.1022C227.711 58.3183 227.826 43.4249 227.089 28.5278C227.173 23.4755 226.899 18.5021 226.983 13.4498C227.074 12.1714 227.296 10.713 227.356 9.49173C227.416 8.27043 227.596 8.78461 226.919 9.58799C226.242 10.3914 227.455 8.91626 229.246 7.86784C250.73 13.9628 261.563 47.5198 253.196 84.2451C244.828 120.97 219.634 147.958 197.072 142.956L196.91 142.539ZM186.627 137.855C171.17 126.155 164.473 96.9733 171.542 65.6683C178.1 36.4892 194.948 14.0058 212.713 7.83128C212.496 9.5401 212.509 11.1481 212.42 11.7719C212.662 17.457 213.222 23.0722 213.773 28.639C215.787 43.1213 217.08 57.6967 217.644 72.2858C217.663 87.7855 216.957 101.633 210.734 116.09C207.383 123.132 202.516 128.907 196.616 132.838C193.446 134.892 190.088 136.525 186.599 137.71L186.627 137.855Z" fill="#AF7F58" fill-opacity="0.15"/>
</g>
<defs>
<clipPath id="clip0_0_1">
<rect width="94.5961" height="130.486" fill="white" transform="matrix(0.976633 -0.214912 0.185059 0.982727 154 20.9023)"/>
</clipPath>
</defs>
</svg>
