<svg width="61" height="14" viewBox="0 0 61 14" fill="none" xmlns="http://www.w3.org/2000/svg">
<path d="M3.32 6.66C3.16 6.66 3.02 6.63333 2.9 6.58C2.54 6.47333 2.17333 6.24667 1.8 5.9C1.42667 5.54 1.1 5.11333 0.82 4.62C0.553333 4.11333 0.393333 3.61333 0.34 3.12C0.326667 3.06667 0.32 3 0.32 2.92C0.32 2.84 0.32 2.74667 0.32 2.64C0.32 0.92 1.4 0.0599999 3.56 0.0599999C4.62667 0.0599999 5.8 0.226666 7.08 0.559999C8.36 0.893332 9.84667 1.34 11.54 1.9C11.9667 2.04667 12.3267 2.16667 12.62 2.26C12.9133 2.35333 13.1267 2.42 13.26 2.46C13.7133 2.59333 14.1333 2.66 14.52 2.66C14.9467 2.66 15.26 2.58 15.46 2.42C15.66 2.24667 15.7533 2.06 15.74 1.86V1.78C15.74 1.62 15.7867 1.54 15.88 1.54C15.9867 1.54 16.1 1.62 16.22 1.78C16.2733 1.84667 16.3 1.94 16.3 2.06C16.3 2.34 16.1467 2.6 15.84 2.84C15.5333 3.08 15.0667 3.2 14.44 3.2C13.8667 3.2 13.2333 3.10667 12.54 2.92C11.8467 2.73333 10.9467 2.46 9.84 2.1C8.6 1.7 7.58 1.4 6.78 1.2C5.98 0.986666 5.23333 0.879999 4.54 0.879999C2.91333 0.879999 1.88 1.59333 1.44 3.02C1.4 3.15333 1.38 3.30667 1.38 3.48C1.38 3.81333 1.46667 4.19333 1.64 4.62C1.82667 5.03333 2.05333 5.40667 2.32 5.74C2.58667 6.06 2.84667 6.24667 3.1 6.3H3.24C3.56 6.3 3.72 6.36 3.72 6.48C3.72 6.52 3.68667 6.56 3.62 6.6C3.54 6.64 3.44 6.66 3.32 6.66ZM4.6 13.86C3.97333 13.7267 3.66 13.3867 3.66 12.84C3.66 12.5733 3.72667 12.22 3.86 11.78C3.99333 11.3933 4.11333 11.0533 4.22 10.76C4.34 10.4533 4.45333 10.1933 4.56 9.98C4.66667 9.76667 4.79333 9.52667 4.94 9.26C5.1 8.99333 5.28667 8.69333 5.5 8.36L4.5 8.94C4.32667 9.03333 4.17333 9.11333 4.04 9.18C3.90667 9.24667 3.78667 9.29333 3.68 9.32C3.66667 9.32 3.65333 9.32667 3.64 9.34C3.64 9.34 3.63333 9.34 3.62 9.34C3.55333 9.34 3.52 9.28667 3.52 9.18C3.52 9.03333 3.56667 8.85333 3.66 8.64C3.76667 8.42667 3.86667 8.28667 3.96 8.22C4.13333 8.12667 4.29333 8.04667 4.44 7.98C4.58667 7.91333 4.71333 7.86667 4.82 7.84C4.86 7.82667 4.90667 7.81333 4.96 7.8C5.01333 7.77333 5.07333 7.75333 5.14 7.74C5.26 7.7 5.42 7.64 5.62 7.56C5.82 7.46667 5.98 7.41333 6.1 7.4C6.1 7.4 6.14667 7.33333 6.24 7.2C6.33333 7.05333 6.47333 6.84 6.66 6.56C7.22 5.69333 7.56667 5.14 7.7 4.9C8.02 4.32667 8.30667 3.88 8.56 3.56C8.70667 3.36 8.91333 3.26 9.18 3.26C9.36667 3.26 9.54 3.30667 9.7 3.4C9.86 3.49333 9.94 3.59333 9.94 3.7C9.94 3.76667 9.91333 3.82 9.86 3.86C9.48667 4.18 9.04 4.63333 8.52 5.22C8.01333 5.79333 7.51333 6.40667 7.02 7.06C8.08667 6.78 9.08667 6.64 10.02 6.64C10.2333 6.64 10.3867 6.66 10.48 6.7C10.5867 6.76667 10.64 6.82667 10.64 6.88C10.64 6.92 10.6 6.97333 10.52 7.04C10.48 7.06667 10.4267 7.08667 10.36 7.1C10.3067 7.11333 10.2467 7.12667 10.18 7.14C9.67333 7.16667 9.22667 7.21333 8.84 7.28C8.45333 7.34667 8.07333 7.44 7.7 7.56C7.34 7.66667 6.93333 7.81333 6.48 8C6.2 8.4 5.96667 8.74 5.78 9.02C5.59333 9.28667 5.44 9.54 5.32 9.78C5.2 10.0067 5.08667 10.26 4.98 10.54C4.87333 10.8067 4.76 11.14 4.64 11.54C4.50667 11.94 4.44 12.26 4.44 12.5C4.44 12.8733 4.60667 13.1 4.94 13.18C5.06 13.1933 5.12 13.26 5.12 13.38C5.12 13.5 5.06 13.6133 4.94 13.72C4.83333 13.84 4.72 13.8867 4.6 13.86ZM12.7519 12.58C12.4052 12.58 12.2319 12.3267 12.2319 11.82C12.2319 11.3 12.4119 10.5333 12.7719 9.52C12.3452 10.0667 11.9185 10.5533 11.4919 10.98C11.0785 11.3933 10.6652 11.7333 10.2519 12C9.95854 12.2133 9.69188 12.32 9.45188 12.32C9.13188 12.32 8.97188 12.1 8.97188 11.66C8.97188 11.42 9.01188 11.2 9.09188 11C9.19854 10.7067 9.35188 10.3667 9.55188 9.98C9.76521 9.59333 10.0119 9.20667 10.2919 8.82C10.5719 8.43333 10.8585 8.10667 11.1519 7.84C11.2585 7.77333 11.3252 7.74 11.3519 7.74C11.4452 7.74 11.4919 7.79333 11.4919 7.9C11.4919 7.94 11.4719 7.99333 11.4319 8.06C11.3119 8.19333 11.1719 8.38667 11.0119 8.64C10.8519 8.89333 10.6985 9.16667 10.5519 9.46C10.4052 9.75333 10.2785 10.0267 10.1719 10.28C10.0785 10.52 10.0319 10.7 10.0319 10.82C10.0319 11.06 10.1385 11.18 10.3519 11.18C10.4452 11.18 10.5452 11.1467 10.6519 11.08C11.1452 10.7733 11.5985 10.4067 12.0119 9.98C12.4252 9.54 12.8119 8.94667 13.1719 8.2C13.2919 8.12 13.4252 8.08 13.5719 8.08C13.7185 8.08 13.8385 8.12667 13.9319 8.22C14.0385 8.31333 14.0919 8.44 14.0919 8.6C14.0919 8.72 14.0585 8.86 13.9919 9.02C13.9785 9.07333 13.9519 9.12667 13.9119 9.18C13.8852 9.23333 13.8519 9.29333 13.8119 9.36C13.7719 9.42667 13.7385 9.49333 13.7119 9.56C13.6852 9.61333 13.6585 9.66 13.6319 9.7C13.3785 10.1533 13.1785 10.5333 13.0319 10.84C12.8985 11.1467 12.8319 11.4133 12.8319 11.64C12.8319 11.9067 12.9519 12.04 13.1919 12.04C13.4052 12.04 13.6185 11.96 13.8319 11.8C13.9652 11.7067 14.0785 11.66 14.1719 11.66C14.3185 11.66 14.2852 11.7533 14.0719 11.94C13.8719 12.1133 13.6252 12.2733 13.3319 12.42C13.0519 12.5267 12.8585 12.58 12.7519 12.58ZM14.7569 12.32C14.5169 12.32 14.3969 12.2267 14.3969 12.04C14.3969 11.92 14.4369 11.7667 14.5169 11.58C14.6102 11.3933 14.7035 11.2133 14.7969 11.04C15.0502 10.5867 15.2835 10.1467 15.4969 9.72C15.7102 9.29333 15.9169 8.84 16.1169 8.36C16.2102 8.14667 16.3502 8.04 16.5369 8.04C16.7369 8.04 16.7969 8.16 16.7169 8.4C16.6369 8.6 16.5569 8.78 16.4769 8.94C16.1035 9.7 15.9169 10.2133 15.9169 10.48C15.9169 10.6 15.9569 10.6733 16.0369 10.7C16.2235 10.5533 16.3635 10.4467 16.4569 10.38C16.5502 10.3 16.6035 10.2533 16.6169 10.24C16.8035 10.0933 17.0102 9.92667 17.2369 9.74C17.4769 9.54 17.7369 9.31333 18.0169 9.06C18.4569 8.66 18.8235 8.46 19.1169 8.46C19.4769 8.46 19.6302 8.78667 19.5769 9.44C19.5635 9.69333 19.5635 9.94 19.5769 10.18C19.5902 10.2333 19.5969 10.3133 19.5969 10.42C19.5969 10.5133 19.5969 10.6267 19.5969 10.76C19.5969 10.8933 19.6769 10.96 19.8369 10.96C20.0235 10.96 20.1969 10.9067 20.3569 10.8L20.7969 10.5L21.2369 10.22C21.2635 10.2067 21.3102 10.2 21.3769 10.2C21.4569 10.2 21.4569 10.26 21.3769 10.38C20.5369 11.42 19.8435 11.94 19.2969 11.94C19.1902 11.94 19.0835 11.92 18.9769 11.88C18.8835 11.84 18.8169 11.7267 18.7769 11.54C18.7369 11.34 18.7102 11.1267 18.6969 10.9C18.6969 10.6733 18.6969 10.5 18.6969 10.38L18.7169 9.72C18.7169 9.44 18.6435 9.3 18.4969 9.3C18.1502 9.3 17.2969 10.0133 15.9369 11.44C15.8302 11.5733 15.6635 11.7533 15.4369 11.98C15.2102 12.2067 14.9835 12.32 14.7569 12.32ZM22.3347 12.4C22.0147 12.4 21.768 12.3 21.5947 12.1C21.4347 11.9133 21.3547 11.6667 21.3547 11.36C21.3547 10.8133 21.5547 10.28 21.9547 9.76C22.2747 9.34667 22.628 8.97333 23.0147 8.64C23.4147 8.29333 23.8014 8.02 24.1747 7.82C24.5614 7.60667 24.888 7.5 25.1547 7.5C25.408 7.5 25.5747 7.60667 25.6547 7.82C25.708 7.92667 25.7347 8.05333 25.7347 8.2C25.7347 8.46667 25.6347 8.6 25.4347 8.6C25.3414 8.6 25.2547 8.56 25.1747 8.48C25.108 8.38667 25.0747 8.26 25.0747 8.1C24.928 8.03333 24.728 8.06667 24.4747 8.2C24.2347 8.32 23.9814 8.5 23.7147 8.74C23.448 8.96667 23.1947 9.21333 22.9547 9.48C22.7147 9.73333 22.528 9.95333 22.3947 10.14C22.1547 10.4733 22.0347 10.84 22.0347 11.24C22.0347 11.4267 22.0814 11.58 22.1747 11.7C22.268 11.82 22.408 11.88 22.5947 11.88C22.768 11.88 22.9747 11.8267 23.2147 11.72C23.388 11.6267 23.548 11.54 23.6947 11.46C23.8547 11.38 24.0014 11.3067 24.1347 11.24C24.9614 10.7733 25.428 10.54 25.5347 10.54C25.5747 10.54 25.5947 10.56 25.5947 10.6C25.5947 10.64 25.5614 10.6933 25.4947 10.76C25.3614 10.88 25.148 11.0467 24.8547 11.26C24.5614 11.4733 24.248 11.6733 23.9147 11.86C23.5814 12.0467 23.2747 12.1867 22.9947 12.28C22.7414 12.36 22.5214 12.4 22.3347 12.4ZM28.1036 7.62C27.9303 7.62 27.8436 7.58 27.8436 7.5C27.8436 7.43333 27.8903 7.34 27.9836 7.22C28.0903 7.08667 28.2103 6.97333 28.3436 6.88C28.6369 6.69333 28.8636 6.53333 29.0236 6.4C29.1969 6.26667 29.4036 6.04 29.6436 5.72C29.6569 5.74667 29.6636 5.8 29.6636 5.88C29.6636 6.05333 29.5903 6.26667 29.4436 6.52C29.3103 6.76 29.1569 6.98 28.9836 7.18C28.8103 7.38 28.6569 7.50667 28.5236 7.56C28.4036 7.6 28.2636 7.62 28.1036 7.62ZM26.3236 12.52C26.2169 12.52 26.1169 12.48 26.0236 12.4C25.9303 12.32 25.8836 12.2133 25.8836 12.08C25.8836 11.8 26.0769 11.2867 26.4636 10.54L26.6836 10.1C26.7103 10.0733 26.7436 10.0067 26.7836 9.9C26.8369 9.79333 26.9103 9.65333 27.0036 9.48C27.0969 9.29333 27.1703 9.12667 27.2236 8.98C27.2769 8.83333 27.3169 8.69333 27.3436 8.56C27.3436 8.54667 27.3703 8.52 27.4236 8.48C27.4769 8.44 27.5303 8.40667 27.5836 8.38L27.7036 8.36C27.8103 8.36 27.8969 8.38 27.9636 8.42C28.0436 8.46 28.0703 8.51333 28.0436 8.58C27.9503 8.78 27.8703 8.95333 27.8036 9.1C27.7369 9.24667 27.6836 9.37333 27.6436 9.48H27.6236C27.4769 9.81333 27.3503 10.1333 27.2436 10.44C27.1503 10.7333 27.1103 11.0133 27.1236 11.28L27.1436 11.82C27.1303 11.9533 27.0836 12.0667 27.0036 12.16C26.9503 12.2 26.8769 12.2467 26.7836 12.3C26.6903 12.3667 26.5703 12.4333 26.4236 12.5C26.4103 12.5133 26.3769 12.52 26.3236 12.52ZM28.8911 12.34C28.3711 12.34 28.1111 12.1067 28.1111 11.64C28.1111 11.6133 28.1111 11.5667 28.1111 11.5C28.1244 11.4333 28.1378 11.3533 28.1511 11.26C28.2844 10.7133 28.5511 10.1867 28.9511 9.68C29.3644 9.16 29.8378 8.70667 30.3711 8.32C30.5711 8.16 30.8911 8.08 31.3311 8.08C31.5844 8.08 31.8044 8.12 31.9911 8.2C32.1911 8.26667 32.3311 8.37333 32.4111 8.52C32.4911 8.65333 32.5311 8.80667 32.5311 8.98C32.5311 9.00667 32.5244 9.04667 32.5111 9.1C32.5111 9.15333 32.5044 9.21333 32.4911 9.28C32.5178 9.26667 32.5578 9.26 32.6111 9.26C32.6778 9.26 32.7578 9.25333 32.8511 9.24C32.9444 9.22667 33.0311 9.21333 33.1111 9.2C33.2044 9.18667 33.2978 9.18 33.3911 9.18H33.4711C33.6178 9.18 33.6311 9.24 33.5111 9.36C33.4044 9.46667 33.2578 9.53333 33.0711 9.56L32.3911 9.64C32.2578 10.0133 32.0244 10.3867 31.6911 10.76C31.3711 11.1333 31.0111 11.46 30.6111 11.74C30.2244 12.0067 29.8578 12.18 29.5111 12.26C29.3111 12.3133 29.1044 12.34 28.8911 12.34ZM31.4511 9.36C31.5311 9.36 31.6244 9.36 31.7311 9.36C31.8511 9.34667 31.9844 9.33333 32.1311 9.32C32.1444 9.29333 32.1511 9.23333 32.1511 9.14C32.1511 8.9 32.0511 8.73333 31.8511 8.64C31.7444 8.57333 31.6111 8.54 31.4511 8.54C31.2511 8.54 31.0444 8.60667 30.8311 8.74C30.6311 8.86 30.4178 9.02 30.1911 9.22C30.4711 9.31333 30.8911 9.36 31.4511 9.36ZM29.4911 11.64C29.6244 11.64 29.8111 11.58 30.0511 11.46C30.3044 11.3267 30.5644 11.1533 30.8311 10.94C31.0978 10.7267 31.3378 10.5 31.5511 10.26C31.6178 10.1933 31.6844 10.1133 31.7511 10.02C31.8178 9.91333 31.8911 9.80667 31.9711 9.7L31.4911 9.76C30.7444 9.86667 30.0778 9.92667 29.4911 9.94C29.1978 10.42 29.0178 10.82 28.9511 11.14C28.9378 11.3133 28.9844 11.44 29.0911 11.52C29.1978 11.6 29.3311 11.64 29.4911 11.64ZM33.0577 12.32C32.8177 12.32 32.6977 12.2267 32.6977 12.04C32.6977 11.92 32.7377 11.7667 32.8177 11.58C32.911 11.3933 33.0043 11.2133 33.0977 11.04C33.351 10.5867 33.5843 10.1467 33.7977 9.72C34.011 9.29333 34.2177 8.84 34.4177 8.36C34.511 8.14667 34.651 8.04 34.8377 8.04C35.0377 8.04 35.0977 8.16 35.0177 8.4C34.9377 8.6 34.8577 8.78 34.7777 8.94C34.4043 9.7 34.2177 10.2133 34.2177 10.48C34.2177 10.6 34.2577 10.6733 34.3377 10.7C34.5243 10.5533 34.6643 10.4467 34.7577 10.38C34.851 10.3 34.9043 10.2533 34.9177 10.24C35.1043 10.0933 35.311 9.92667 35.5377 9.74C35.7777 9.54 36.0377 9.31333 36.3177 9.06C36.7577 8.66 37.1243 8.46 37.4177 8.46C37.7777 8.46 37.931 8.78667 37.8777 9.44C37.8643 9.69333 37.8643 9.94 37.8777 10.18C37.891 10.2333 37.8977 10.3133 37.8977 10.42C37.8977 10.5133 37.8977 10.6267 37.8977 10.76C37.8977 10.8933 37.9777 10.96 38.1377 10.96C38.3243 10.96 38.4977 10.9067 38.6577 10.8L39.0977 10.5L39.5377 10.22C39.5643 10.2067 39.611 10.2 39.6777 10.2C39.7577 10.2 39.7577 10.26 39.6777 10.38C38.8377 11.42 38.1443 11.94 37.5977 11.94C37.491 11.94 37.3843 11.92 37.2777 11.88C37.1843 11.84 37.1177 11.7267 37.0777 11.54C37.0377 11.34 37.011 11.1267 36.9977 10.9C36.9977 10.6733 36.9977 10.5 36.9977 10.38L37.0177 9.72C37.0177 9.44 36.9443 9.3 36.7977 9.3C36.451 9.3 35.5977 10.0133 34.2377 11.44C34.131 11.5733 33.9643 11.7533 33.7377 11.98C33.511 12.2067 33.2843 12.32 33.0577 12.32ZM42.8755 12.54C42.8488 12.54 42.8221 12.5333 42.7955 12.52C42.7688 12.52 42.7421 12.5133 42.7155 12.5C42.5288 12.4067 42.4088 12.2733 42.3555 12.1C42.3021 11.9267 42.2888 11.7067 42.3155 11.44C42.3421 11.3333 42.3688 11.1467 42.3955 10.88C42.4355 10.6133 42.4821 10.4 42.5355 10.24L41.5155 11.22L40.9555 11.76C40.5688 12.1467 40.2488 12.34 39.9955 12.34C39.8888 12.34 39.8021 12.3 39.7355 12.22C39.6155 12.0733 39.5555 11.8933 39.5555 11.68C39.5555 11.4 39.6288 11.1 39.7755 10.78C39.9221 10.46 40.0955 10.1533 40.2955 9.86C40.4955 9.55333 40.6755 9.3 40.8355 9.1C41.2355 8.60667 41.6221 8.22 41.9955 7.94C42.3821 7.66 42.7821 7.52 43.1955 7.52C43.4221 7.52 43.6421 7.56 43.8555 7.64C44.0821 7.72 44.2888 7.85333 44.4755 8.04L44.4955 8.06C44.4955 8.1 44.4621 8.14 44.3955 8.18C44.3688 8.20667 44.3421 8.22667 44.3155 8.24C44.3021 8.25333 44.2888 8.26667 44.2755 8.28C44.1155 8.44 43.9355 8.70667 43.7355 9.08C43.5355 9.45333 43.3621 9.84667 43.2155 10.26C43.0688 10.66 42.9955 11.0067 42.9955 11.3C42.9955 11.5667 43.0621 11.7467 43.1955 11.84C43.2621 11.88 43.3355 11.9 43.4155 11.9C43.5888 11.9 43.8288 11.7933 44.1355 11.58C44.1488 11.5667 44.1755 11.5467 44.2155 11.52C44.2688 11.48 44.3421 11.4267 44.4355 11.36C44.5421 11.28 44.6288 11.24 44.6955 11.24C44.7621 11.24 44.7955 11.2667 44.7955 11.32C44.7955 11.4 44.7421 11.4933 44.6355 11.6C44.5555 11.6667 44.4621 11.74 44.3555 11.82C44.2621 11.9 44.1488 11.98 44.0155 12.06C43.8155 12.2067 43.6088 12.32 43.3955 12.4C43.1821 12.4933 43.0088 12.54 42.8755 12.54ZM40.6155 11.26C40.8955 11.26 41.4155 10.8467 42.1755 10.02C42.3755 9.79333 42.5555 9.58 42.7155 9.38C42.8755 9.16667 43.0221 8.96 43.1555 8.76C43.3955 8.37333 43.4755 8.10667 43.3955 7.96C43.3555 7.88 43.2755 7.84 43.1555 7.84C43.0088 7.84 42.8088 7.92 42.5555 8.08C42.3021 8.22667 42.0421 8.42 41.7755 8.66C41.5221 8.9 41.2888 9.14 41.0755 9.38C40.9288 9.56667 40.7821 9.82667 40.6355 10.16C40.4888 10.4933 40.4155 10.7667 40.4155 10.98C40.4155 11.1667 40.4821 11.26 40.6155 11.26ZM45.5553 12.42C45.382 12.42 45.2953 12.2667 45.2953 11.96C45.2953 11.7067 45.3553 11.46 45.4753 11.22C45.782 10.6333 46.062 10.0533 46.3153 9.48C46.4886 9.13333 46.6486 8.8 46.7953 8.48C46.9553 8.16 47.102 7.86667 47.2353 7.6C47.3153 7.52 47.3953 7.48 47.4753 7.48C47.6486 7.48 47.702 7.56 47.6353 7.72C47.6086 7.81333 47.5686 7.92667 47.5153 8.06C47.4753 8.18 47.422 8.32667 47.3553 8.5C47.142 9.06 47.0153 9.45333 46.9753 9.68C47.3486 9.34667 47.7286 9.04 48.1153 8.76C48.5153 8.46667 48.8886 8.22667 49.2353 8.04C49.582 7.85333 49.8753 7.76 50.1153 7.76C50.3286 7.76 50.4353 7.84667 50.4353 8.02C50.4353 8.16667 50.3686 8.32667 50.2353 8.5C50.102 8.66 49.9686 8.74 49.8353 8.74C49.7686 8.74 49.7153 8.72 49.6753 8.68C49.6353 8.66667 49.5553 8.66 49.4353 8.66C49.0086 8.66 48.562 8.86667 48.0953 9.28C47.602 9.69333 47.1553 10.1933 46.7553 10.78C46.3553 11.3533 46.062 11.8533 45.8753 12.28C45.782 12.3733 45.6753 12.42 45.5553 12.42ZM51.5606 7.62C51.3873 7.62 51.3006 7.58 51.3006 7.5C51.3006 7.43333 51.3473 7.34 51.4406 7.22C51.5473 7.08667 51.6673 6.97333 51.8006 6.88C52.094 6.69333 52.3206 6.53333 52.4806 6.4C52.654 6.26667 52.8606 6.04 53.1006 5.72C53.114 5.74667 53.1206 5.8 53.1206 5.88C53.1206 6.05333 53.0473 6.26667 52.9006 6.52C52.7673 6.76 52.614 6.98 52.4406 7.18C52.2673 7.38 52.114 7.50667 51.9806 7.56C51.8606 7.6 51.7206 7.62 51.5606 7.62ZM49.7806 12.52C49.674 12.52 49.574 12.48 49.4806 12.4C49.3873 12.32 49.3406 12.2133 49.3406 12.08C49.3406 11.8 49.534 11.2867 49.9206 10.54L50.1406 10.1C50.1673 10.0733 50.2006 10.0067 50.2406 9.9C50.294 9.79333 50.3673 9.65333 50.4606 9.48C50.554 9.29333 50.6273 9.12667 50.6806 8.98C50.734 8.83333 50.774 8.69333 50.8006 8.56C50.8006 8.54667 50.8273 8.52 50.8806 8.48C50.934 8.44 50.9873 8.40667 51.0406 8.38L51.1606 8.36C51.2673 8.36 51.354 8.38 51.4206 8.42C51.5006 8.46 51.5273 8.51333 51.5006 8.58C51.4073 8.78 51.3273 8.95333 51.2606 9.1C51.194 9.24667 51.1406 9.37333 51.1006 9.48H51.0806C50.934 9.81333 50.8073 10.1333 50.7006 10.44C50.6073 10.7333 50.5673 11.0133 50.5806 11.28L50.6006 11.82C50.5873 11.9533 50.5406 12.0667 50.4606 12.16C50.4073 12.2 50.334 12.2467 50.2406 12.3C50.1473 12.3667 50.0273 12.4333 49.8806 12.5C49.8673 12.5133 49.834 12.52 49.7806 12.52ZM52.3481 12.34C51.8281 12.34 51.5681 12.1067 51.5681 11.64C51.5681 11.6133 51.5681 11.5667 51.5681 11.5C51.5815 11.4333 51.5948 11.3533 51.6081 11.26C51.7415 10.7133 52.0081 10.1867 52.4081 9.68C52.8215 9.16 53.2948 8.70667 53.8281 8.32C54.0281 8.16 54.3481 8.08 54.7881 8.08C55.0415 8.08 55.2615 8.12 55.4481 8.2C55.6481 8.26667 55.7881 8.37333 55.8681 8.52C55.9481 8.65333 55.9881 8.80667 55.9881 8.98C55.9881 9.00667 55.9815 9.04667 55.9681 9.1C55.9681 9.15333 55.9615 9.21333 55.9481 9.28C55.9748 9.26667 56.0148 9.26 56.0681 9.26C56.1348 9.26 56.2148 9.25333 56.3081 9.24C56.4015 9.22667 56.4881 9.21333 56.5681 9.2C56.6615 9.18667 56.7548 9.18 56.8481 9.18H56.9281C57.0748 9.18 57.0881 9.24 56.9681 9.36C56.8615 9.46667 56.7148 9.53333 56.5281 9.56L55.8481 9.64C55.7148 10.0133 55.4815 10.3867 55.1481 10.76C54.8281 11.1333 54.4681 11.46 54.0681 11.74C53.6815 12.0067 53.3148 12.18 52.9681 12.26C52.7681 12.3133 52.5615 12.34 52.3481 12.34ZM54.9081 9.36C54.9881 9.36 55.0815 9.36 55.1881 9.36C55.3081 9.34667 55.4415 9.33333 55.5881 9.32C55.6015 9.29333 55.6081 9.23333 55.6081 9.14C55.6081 8.9 55.5081 8.73333 55.3081 8.64C55.2015 8.57333 55.0681 8.54 54.9081 8.54C54.7081 8.54 54.5015 8.60667 54.2881 8.74C54.0881 8.86 53.8748 9.02 53.6481 9.22C53.9281 9.31333 54.3481 9.36 54.9081 9.36ZM52.9481 11.64C53.0815 11.64 53.2681 11.58 53.5081 11.46C53.7615 11.3267 54.0215 11.1533 54.2881 10.94C54.5548 10.7267 54.7948 10.5 55.0081 10.26C55.0748 10.1933 55.1415 10.1133 55.2081 10.02C55.2748 9.91333 55.3481 9.80667 55.4281 9.7L54.9481 9.76C54.2015 9.86667 53.5348 9.92667 52.9481 9.94C52.6548 10.42 52.4748 10.82 52.4081 11.14C52.3948 11.3133 52.4415 11.44 52.5481 11.52C52.6548 11.6 52.7881 11.64 52.9481 11.64ZM55.8947 12.84C55.6814 12.84 55.4947 12.82 55.3347 12.78C55.188 12.74 55.1147 12.6867 55.1147 12.62C55.1147 12.5133 55.2214 12.4533 55.4347 12.44C55.6347 12.4267 55.768 12.4067 55.8347 12.38C55.9547 12.3533 56.0947 12.3333 56.2547 12.32C56.4014 12.2933 56.5214 12.2733 56.6147 12.26C57.2547 12.0733 57.5747 11.7867 57.5747 11.4C57.5747 11.1333 57.4347 10.7933 57.1547 10.38C56.9814 10.1267 56.8947 9.84667 56.8947 9.54C56.8947 9.16667 57.008 8.8 57.2347 8.44C57.4747 8.08 57.768 7.76667 58.1147 7.5C58.4747 7.22 58.8347 7.03333 59.1947 6.94C59.3547 6.9 59.5214 6.88 59.6947 6.88C59.9747 6.88 60.1747 6.94667 60.2947 7.08C60.3747 7.16 60.4147 7.33333 60.4147 7.6C60.4147 7.8 60.3814 8.00667 60.3147 8.22C60.248 8.42 60.1547 8.58667 60.0347 8.72C59.968 8.78667 59.9147 8.82 59.8747 8.82C59.808 8.82 59.7747 8.72667 59.7747 8.54L59.7947 8.14C59.808 8.03333 59.8147 7.94 59.8147 7.86C59.828 7.78 59.8347 7.71333 59.8347 7.66C59.8347 7.43333 59.788 7.3 59.6947 7.26C59.588 7.23333 59.5147 7.22 59.4747 7.22C59.1947 7.22 58.8947 7.34667 58.5747 7.6C58.2547 7.85333 57.9947 8.14667 57.7947 8.48C57.7147 8.6 57.6747 8.74667 57.6747 8.92C57.6747 9.13333 57.728 9.38667 57.8347 9.68C57.9547 9.96 58.0414 10.1667 58.0947 10.3C58.228 10.5933 58.328 10.8467 58.3947 11.06C58.4747 11.2733 58.5147 11.46 58.5147 11.62C58.5147 11.7 58.508 11.76 58.4947 11.8C58.5614 11.7733 58.7214 11.7333 58.9747 11.68C59.2014 11.6267 59.3947 11.6 59.5547 11.6C59.648 11.6 59.6947 11.62 59.6947 11.66C59.6947 11.6733 59.6547 11.72 59.5747 11.8C59.5347 11.84 59.408 11.9067 59.1947 12C58.9947 12.08 58.7547 12.1667 58.4747 12.26C58.208 12.3533 57.9414 12.44 57.6747 12.52C57.408 12.6 57.1814 12.66 56.9947 12.7C56.6747 12.7933 56.308 12.84 55.8947 12.84Z" fill="#FFF8E8"/>
</svg>
