<svg width="33" height="15" viewBox="0 0 33 15" fill="none" xmlns="http://www.w3.org/2000/svg">
<path d="M1.56 14.58C1.42667 14.58 1.36 14.5267 1.36 14.42C1.36 14.2733 1.46667 14.1733 1.68 14.12C2.34667 13.9333 3.01333 13.6267 3.68 13.2C4.34667 12.7867 4.98 12.3133 5.58 11.78C6.18 11.2467 6.70667 10.72 7.16 10.2C7.26667 10.0667 7.41333 9.89333 7.6 9.68C7.78667 9.45333 8.00667 9.18 8.26 8.86C7.92667 8.99333 7.60667 9.12 7.3 9.24C7.00667 9.36 6.73333 9.48 6.48 9.6C6.46667 9.61333 6.43333 9.62 6.38 9.62C6.26 9.62 6.2 9.54667 6.2 9.4C6.2 9.25333 6.24 9.1 6.32 8.94C6.41333 8.76667 6.52 8.64667 6.64 8.58C7.02667 8.42 7.42 8.27333 7.82 8.14C8.23333 7.99333 8.65333 7.86667 9.08 7.76C9.68 6.93333 10.1933 6.10667 10.62 5.28C11.0467 4.44 11.4267 3.48667 11.76 2.42C11.8533 2.1 11.9 1.84667 11.9 1.66C11.9 1.14 11.5933 0.839999 10.98 0.759999C10.74 0.733333 10.42 0.766666 10.02 0.859999C9.62 0.953333 9.18 1.09333 8.7 1.28C8.22 1.45333 7.74667 1.64667 7.28 1.86C6.82667 2.07333 6.42667 2.29333 6.08 2.52C5.29333 3.01333 4.54667 3.6 3.84 4.28C3.14667 4.94667 2.60667 5.58667 2.22 6.2C1.87333 6.77333 1.7 7.22667 1.7 7.56C1.7 8.08 2.05333 8.34 2.76 8.34C3.52 8.34 4.26 8.22 4.98 7.98C5.71333 7.74 6.34 7.46667 6.86 7.16C7.04667 7.05333 7.20667 7 7.34 7C7.43333 7 7.48 7.02 7.48 7.06C7.46667 7.1 7.40667 7.15333 7.3 7.22C6.55333 7.67333 5.8 8.06 5.04 8.38C4.28 8.68667 3.50667 8.84 2.72 8.84C2.12 8.84 1.67333 8.73333 1.38 8.52C1.08667 8.29333 0.94 7.98667 0.94 7.6C0.94 7.17333 1.08 6.71333 1.36 6.22C1.62667 5.72667 1.98 5.22 2.42 4.7C2.87333 4.18 3.38667 3.67333 3.96 3.18C4.53333 2.68667 5.14 2.25333 5.78 1.88C6.7 1.32 7.6 0.866666 8.48 0.52C9.37333 0.173333 10.2667 -4.76837e-07 11.16 -4.76837e-07C11.64 -4.76837e-07 12 0.126666 12.24 0.379999C12.48 0.619999 12.6 0.959999 12.6 1.4C12.6 1.70667 12.54 2.05333 12.42 2.44C12.18 3.24 11.9467 3.93333 11.72 4.52C11.5067 5.09333 11.2733 5.62 11.02 6.1C10.78 6.56667 10.4867 7.05333 10.14 7.56C10.54 7.45333 10.9067 7.37333 11.24 7.32C11.5867 7.26667 11.9533 7.22 12.34 7.18C12.7267 7.12667 13.1867 7.07333 13.72 7.02C13.8267 7.00667 13.9733 6.99333 14.16 6.98C14.3467 6.96667 14.5667 6.94667 14.82 6.92C15.5667 5.58667 16.2467 4.46 16.86 3.54C17.4867 2.62 18.0333 1.90667 18.5 1.4C18.58 1.32 18.7 1.28 18.86 1.28C19.06 1.28 19.2467 1.33333 19.42 1.44C19.5933 1.53333 19.68 1.64667 19.68 1.78C19.68 1.83333 19.6533 1.88667 19.6 1.94C19 2.46 18.3267 3.16 17.58 4.04C16.8467 4.92 16.1467 5.87333 15.48 6.9H15.98C16.0333 6.9 16.0733 6.90667 16.1 6.92C16.14 6.92 16.1733 6.92667 16.2 6.94C16.24 6.95333 16.26 6.98 16.26 7.02C16.26 7.11333 16.1733 7.16667 16 7.18C15.8267 7.19333 15.5867 7.21333 15.28 7.24C14.8933 7.85333 14.5533 8.48 14.26 9.12C13.9667 9.74667 13.7133 10.3733 13.5 11C13.3933 11.36 13.34 11.64 13.34 11.84C13.34 12.32 13.56 12.6 14 12.68C14.1333 12.6933 14.2 12.7733 14.2 12.92C14.2 13.0667 14.1467 13.2 14.04 13.32C13.9333 13.44 13.8133 13.4867 13.68 13.46C13.0533 13.3533 12.74 12.9667 12.74 12.3C12.74 11.94 12.82 11.52 12.98 11.04C13.1533 10.4933 13.3733 9.91333 13.64 9.3C13.92 8.67333 14.2467 8.01333 14.62 7.32C13.7533 7.42667 12.92 7.58667 12.12 7.8C11.32 8 10.4067 8.27333 9.38 8.62C9.24667 8.79333 9.09333 8.97333 8.92 9.16C8.76 9.33333 8.57333 9.52667 8.36 9.74C7.90667 10.2333 7.67333 10.4867 7.66 10.5C7.20667 11.0067 6.65333 11.5333 6 12.08C5.36 12.6267 4.66667 13.12 3.92 13.56C3.18667 14.0133 2.44667 14.3467 1.7 14.56C1.67333 14.5733 1.62667 14.58 1.56 14.58ZM15.7856 12.34C15.2656 12.34 15.0056 12.1067 15.0056 11.64C15.0056 11.6133 15.0056 11.5667 15.0056 11.5C15.019 11.4333 15.0323 11.3533 15.0456 11.26C15.179 10.7133 15.4456 10.1867 15.8456 9.68C16.259 9.16 16.7323 8.70667 17.2656 8.32C17.4656 8.16 17.7856 8.08 18.2256 8.08C18.479 8.08 18.699 8.12 18.8856 8.2C19.0856 8.26667 19.2256 8.37333 19.3056 8.52C19.3856 8.65333 19.4256 8.80667 19.4256 8.98C19.4256 9.00667 19.419 9.04667 19.4056 9.1C19.4056 9.15333 19.399 9.21333 19.3856 9.28C19.4123 9.26667 19.4523 9.26 19.5056 9.26C19.5723 9.26 19.6523 9.25333 19.7456 9.24C19.839 9.22667 19.9256 9.21333 20.0056 9.2C20.099 9.18667 20.1923 9.18 20.2856 9.18H20.3656C20.5123 9.18 20.5256 9.24 20.4056 9.36C20.299 9.46667 20.1523 9.53333 19.9656 9.56L19.2856 9.64C19.1523 10.0133 18.919 10.3867 18.5856 10.76C18.2656 11.1333 17.9056 11.46 17.5056 11.74C17.119 12.0067 16.7523 12.18 16.4056 12.26C16.2056 12.3133 15.999 12.34 15.7856 12.34ZM18.3456 9.36C18.4256 9.36 18.519 9.36 18.6256 9.36C18.7456 9.34667 18.879 9.33333 19.0256 9.32C19.039 9.29333 19.0456 9.23333 19.0456 9.14C19.0456 8.9 18.9456 8.73333 18.7456 8.64C18.639 8.57333 18.5056 8.54 18.3456 8.54C18.1456 8.54 17.939 8.60667 17.7256 8.74C17.5256 8.86 17.3123 9.02 17.0856 9.22C17.3656 9.31333 17.7856 9.36 18.3456 9.36ZM16.3856 11.64C16.519 11.64 16.7056 11.58 16.9456 11.46C17.199 11.3267 17.459 11.1533 17.7256 10.94C17.9923 10.7267 18.2323 10.5 18.4456 10.26C18.5123 10.1933 18.579 10.1133 18.6456 10.02C18.7123 9.91333 18.7856 9.80667 18.8656 9.7L18.3856 9.76C17.639 9.86667 16.9723 9.92667 16.3856 9.94C16.0923 10.42 15.9123 10.82 15.8456 11.14C15.8323 11.3133 15.879 11.44 15.9856 11.52C16.0923 11.6 16.2256 11.64 16.3856 11.64ZM19.5922 12.66C19.4989 12.66 19.4522 12.58 19.4522 12.42C19.4522 12.2867 19.4789 12.1267 19.5322 11.94C19.5989 11.7533 19.6722 11.58 19.7522 11.42C19.8722 11.1933 20.0522 10.7933 20.2922 10.22C20.5722 9.59333 20.8055 9.09333 20.9922 8.72C21.1789 8.33333 21.3589 8.04 21.5322 7.84C21.7189 7.61333 21.8655 7.5 21.9722 7.5C22.0389 7.5 22.0922 7.54667 22.1322 7.64C22.1722 7.72 22.1922 7.81333 22.1922 7.92C22.1922 8.02667 22.1789 8.09333 22.1522 8.12C22.0455 8.22667 21.9055 8.40667 21.7322 8.66C21.5589 8.91333 21.3989 9.16667 21.2522 9.42C20.9722 9.94 20.8322 10.3267 20.8322 10.58C20.8322 10.6067 20.8322 10.6333 20.8322 10.66C20.8455 10.6867 20.8589 10.7133 20.8722 10.74C21.0322 10.66 21.1789 10.58 21.3122 10.5C21.4455 10.42 21.5989 10.3067 21.7722 10.16L22.9922 9.04C23.1255 8.92 23.2455 8.82 23.3522 8.74C23.4589 8.66 23.5455 8.59333 23.6122 8.54C23.7455 8.44667 23.8722 8.4 23.9922 8.4C24.0989 8.4 24.2255 8.46667 24.3722 8.6C24.4389 8.66667 24.4722 8.84667 24.4722 9.14V9.64C24.4722 9.69333 24.4655 9.74667 24.4522 9.8C24.4522 9.84 24.4522 9.88667 24.4522 9.94C24.4522 10.1133 24.4722 10.2667 24.5122 10.4C24.5655 10.52 24.6389 10.58 24.7322 10.58C24.7722 10.58 24.8255 10.5467 24.8922 10.48L25.4522 9.82C25.9189 9.27333 26.2789 8.87333 26.5322 8.62C26.7855 8.36667 27.0722 8.19333 27.3922 8.1C27.4322 8.08667 27.4655 8.08 27.4922 8.08C27.5322 8.06667 27.5655 8.06 27.5922 8.06C27.7122 8.06 27.8122 8.1 27.8922 8.18C27.9855 8.26 28.0122 8.36667 27.9722 8.5C27.9189 8.71333 27.8455 8.96 27.7522 9.24C27.6722 9.50667 27.5989 9.72 27.5322 9.88C27.3722 10.2 27.2922 10.4533 27.2922 10.64C27.2922 10.76 27.3389 10.84 27.4322 10.88C27.5389 10.92 27.6389 10.9467 27.7322 10.96C27.8389 10.9733 27.8922 11 27.8922 11.04C28.1589 10.9467 28.3589 10.9 28.4922 10.9C28.6255 10.9 28.6589 10.9467 28.5922 11.04C28.5255 11.12 28.4055 11.22 28.2322 11.34C28.0589 11.46 27.8655 11.5667 27.6522 11.66C27.4522 11.74 27.2722 11.78 27.1122 11.78C26.7789 11.78 26.6122 11.6 26.6122 11.24C26.6122 11.0533 26.6389 10.88 26.6922 10.72C26.8789 10.04 26.9722 9.6 26.9722 9.4C26.9722 9.2 26.9189 9.1 26.8122 9.1C26.5722 9.1 26.0589 9.58 25.2722 10.54C25.1922 10.6333 25.0989 10.7333 24.9922 10.84C24.8989 10.9467 24.7922 11.0533 24.6722 11.16C24.5122 11.3067 24.3589 11.46 24.2122 11.62C24.1322 11.7 24.0255 11.74 23.8922 11.74C23.6122 11.74 23.4589 11.64 23.4322 11.44C23.4189 11.2267 23.4055 11.0533 23.3922 10.92C23.3922 10.7733 23.3922 10.6733 23.3922 10.62C23.3655 10.2733 23.3455 10.04 23.3322 9.92C23.3189 9.8 23.2589 9.74 23.1522 9.74C23.0189 9.74 22.6855 9.95333 22.1522 10.38C21.4322 10.9533 20.7722 11.5933 20.1722 12.3C19.9189 12.54 19.7255 12.66 19.5922 12.66ZM29.8398 12.22C29.5598 12.22 29.3132 12.1467 29.0998 12C28.7532 11.7333 28.5798 11.3333 28.5798 10.8C28.5798 10.2667 28.7665 9.7 29.1398 9.1C29.5132 8.5 30.0798 7.94667 30.8398 7.44C30.9732 7.34667 31.1532 7.3 31.3798 7.3C31.6732 7.3 31.9332 7.38 32.1598 7.54C32.3998 7.7 32.4932 7.90667 32.4398 8.16C32.3465 8.57333 32.1398 8.94 31.8198 9.26C31.5132 9.58 31.1465 9.86667 30.7198 10.12C30.3065 10.36 29.8798 10.5933 29.4398 10.82C29.4265 10.86 29.4132 10.9 29.3998 10.94C29.3998 10.98 29.3998 11.02 29.3998 11.06C29.3998 11.2467 29.4598 11.4133 29.5798 11.56C29.7132 11.6933 29.8932 11.76 30.1198 11.76C30.2932 11.76 30.4398 11.7333 30.5598 11.68C30.7732 11.6 30.9465 11.5267 31.0798 11.46C31.2265 11.3933 31.3932 11.2933 31.5798 11.16C31.7665 11.0267 32.0198 10.8267 32.3398 10.56C32.4865 10.4533 32.5732 10.4 32.5998 10.4C32.6798 10.4 32.7065 10.46 32.6798 10.58C32.5465 10.7933 32.3132 11.0267 31.9798 11.28C31.6598 11.5333 31.2998 11.7533 30.8998 11.94C30.5132 12.1267 30.1598 12.22 29.8398 12.22ZM29.5598 10.28C29.6665 10.28 29.8865 10.1733 30.2198 9.96C30.5532 9.74667 30.8665 9.51333 31.1598 9.26C31.6665 8.79333 31.9198 8.43333 31.9198 8.18C31.9198 8.11333 31.8998 8.05333 31.8598 8C31.8198 7.93333 31.7598 7.9 31.6798 7.9C31.4265 7.9 30.9998 8.2 30.3998 8.8C29.9865 9.2 29.7065 9.69333 29.5598 10.28Z" fill="#FFF8E8"/>
</svg>
